<svg width="197" height="174" viewBox="0 0 197 174" fill="none" xmlns="http://www.w3.org/2000/svg">
<g clip-path="url(#clip0_43_1861)">
<path d="M193.399 0C192.214 1.24386 191.151 2.59974 190.226 4.04875C185.74 12.6853 181.767 21.6212 176.923 30.0541C154.338 69.3916 121.612 96.5469 78.6615 110.873C70.0833 113.736 61.3024 115.988 52.581 118.456C51.6058 118.699 50.6979 119.16 49.9252 119.805C49.1525 120.451 48.5351 121.263 48.1189 122.181C48.7474 123.082 49.5858 123.815 50.5611 124.316C51.5364 124.817 52.619 125.071 53.7144 125.056C63.7175 125.389 73.714 124.222 83.3742 121.594C107.547 115.449 129.923 103.632 148.662 87.1141C167.401 70.5967 181.969 49.8505 191.168 26.5803C193.836 20.0898 195.719 13.3014 196.776 6.36059C196.839 6.09564 196.931 5.83854 197.05 5.59399V0H193.399Z" fill="#B5D2FE"/>
<path d="M-6.86646e-05 137.753C4.17568 138.448 7.89808 138.951 11.5727 139.706C25.8317 142.695 39.7625 147.089 53.1632 152.822C64.9149 157.685 76.5474 162.812 88.323 167.592C93.8708 169.844 99.6214 171.604 105.312 173.581C106.387 173.979 107.536 174.135 108.677 174.036C109.176 173.986 109.659 173.831 110.095 173.581C110.531 173.332 110.909 172.993 111.206 172.587C111.324 172.095 111.336 171.584 111.239 171.088C111.142 170.591 110.94 170.122 110.645 169.712C109.906 168.692 108.958 167.843 107.865 167.22C101.077 163.255 94.3122 159.243 87.4044 155.493C71.2776 146.734 54.0095 140.283 36.1023 136.328C29.3018 134.83 22.3342 134.124 15.4383 133.069C14.6031 132.938 13.756 132.866 12.5868 132.722C13.3265 132.087 13.7799 131.656 14.2929 131.249C28.0729 119.689 41.996 108.286 55.597 96.511C61.622 91.3004 66.979 85.3231 72.6461 79.7411C73.4019 78.9566 73.9698 78.0095 74.3068 76.9718C74.6437 75.934 74.7409 74.8329 74.5908 73.7519C73.5601 73.3951 72.4587 73.2937 71.3805 73.4564C70.3024 73.6191 69.2795 74.041 68.3987 74.6862C60.4532 80.045 52.963 86.0548 46.0048 92.654C30.9721 106.453 16.0944 120.432 1.2407 134.423C0.429405 134.89 0.417503 136.435 -6.86646e-05 137.753Z" fill="#B5D2FE"/>
</g>
<defs>
<clipPath id="clip0_43_1861">
<rect width="197" height="174" fill="white" transform="matrix(-1 0 0 1 197 0)"/>
</clipPath>
</defs>
</svg>
